<svg id="Groupe_2" data-name="Groupe 2" xmlns="http://www.w3.org/2000/svg" width="41.46" height="41.731" viewBox="0 0 41.46 41.731">
    <g id="Groupe_3" data-name="Groupe 3" transform="translate(0)">
        <path id="Tracé_1" data-name="Tracé 1" d="M56.018,44.089a9.273,9.273,0,0,0-1.77-4.892c1.3-1.832,1.324-5.165,1.269-6.6a.537.537,0,0,0-.736-.478c-1.8.717-4.1,2.9-5.011,3.758a9.363,9.363,0,0,0-5.839-.088,20,20,0,0,0-4.913-3.668.536.536,0,0,0-.734.484c-.038,1.37.013,4.461,1.1,6.321q-.264.337-.5.7t-.435.744a9.245,9.245,0,0,0-1.037,3.693q-.021.309-.021.622,0,.122,0,.244a4.681,4.681,0,0,0,2.822,1.1c2.867,0,3.206-2.67,6.483-2.67s3.616,2.67,6.483,2.67A5.128,5.128,0,0,0,56.032,45q.005-.155.005-.311,0-.3-.019-.6m-13.124-3.4a1.307,1.307,0,0,1-1.144-1.144c0-.421.512-.381,1.144-.381a1.307,1.307,0,0,1,1.144,1.144c0,.419-.512.381-1.144.381m6.483-.381a1.307,1.307,0,0,1,1.144-1.144c.632,0,1.144-.04,1.144.381a1.307,1.307,0,0,1-1.144,1.144c-.632,0-1.144.038-1.144-.381" transform="translate(-25.962 -19.817)" fill="#fcab36"/>
        <path id="Tracé_2" data-name="Tracé 2" d="M56.037,63.135a9.318,9.318,0,0,1-18.629-.067,4.681,4.681,0,0,0,2.822,1.1c2.867,0,3.206-2.67,6.483-2.67s3.616,2.67,6.483,2.67a5.127,5.127,0,0,0,2.842-1.03" transform="translate(-25.967 -37.982)" fill="#f3f1e0"/>
        <path id="Tracé_3" data-name="Tracé 3" d="M59.279,78.644A1.525,1.525,0,0,0,60.8,77.119v-.382c-1.053,0-1.525-.512-1.525-1.144,0,.632-.473,1.144-1.525,1.144v.382a1.525,1.525,0,0,0,1.525,1.525" transform="translate(-38.534 -46.689)" fill="#ea7685"/>
        <path id="Tracé_4" data-name="Tracé 4" d="M60.077,75.257c0-.025,0-.05,0-.074a1.176,1.176,0,0,0-.423-.794c-.029-.024-.06-.047-.091-.068a1.094,1.094,0,0,0-.115-.069h-.094c-.526,0-1.408-.119-1.408-.914a.074.074,0,0,0-.074-.074h-.988a.074.074,0,0,0-.074.074c0,.8-.882.914-1.408.914H55.3a1.133,1.133,0,0,0-.115.069,1.115,1.115,0,0,0-.091.068,1.175,1.175,0,0,0-.424.794c0,.024,0,.049,0,.074s0,.028,0,.042v.382a2.706,2.706,0,1,0,5.411,0V75.3c0-.014,0-.028,0-.042M58.9,75.68a1.525,1.525,0,0,1-3.051,0V75.3h.091a1.97,1.97,0,0,0,.855-.194,1.083,1.083,0,0,0,.4-.349,1,1,0,0,0,.1-.183,1.1,1.1,0,0,0,.078-.416,1.1,1.1,0,0,0,.078.416.978.978,0,0,0,.1.183,1.083,1.083,0,0,0,.4.349,1.968,1.968,0,0,0,.855.194H58.9Z" transform="translate(-36.627 -45.251)" fill="#102833"/>
        <path id="Tracé_5" data-name="Tracé 5" d="M60.94,75.9h0a.5.5,0,0,1,.5.5v.994a.5.5,0,0,1-.994,0v-.994a.5.5,0,0,1,.5-.5" transform="translate(-40.195 -46.876)" fill="#ce3b6a"/>
        <path id="Tracé_6" data-name="Tracé 6" d="M58.269,73.458a.491.491,0,0,0-.419.247,2.3,2.3,0,0,1-1.9.741c-.553,0-1.482-.128-1.482-.988h-.988c0,.86-.928.988-1.482.988a2.3,2.3,0,0,1-1.9-.741.49.49,0,0,0-.419-.247h-.031a.48.48,0,0,0-.421.713A3.145,3.145,0,0,0,52,75.434a2.57,2.57,0,0,0,1.976-.716,2.57,2.57,0,0,0,1.976.716,3.143,3.143,0,0,0,2.772-1.263.48.48,0,0,0-.421-.713Z" transform="translate(-33.228 -45.37)" fill="#102833"/>
        <path id="Tracé_7" data-name="Tracé 7" d="M58.661,73.542a.552.552,0,0,0-.48-.276H58.15a.561.561,0,0,0-.482.283,2.171,2.171,0,0,1-1.744.7H55.83c-.526,0-1.408-.119-1.408-.914a.074.074,0,0,0-.074-.073H53.36a.074.074,0,0,0-.074.073c0,.8-.882.914-1.408.914h-.094a2.171,2.171,0,0,1-1.744-.7.561.561,0,0,0-.482-.283h-.031a.55.55,0,0,0-.48.276.545.545,0,0,0-.005.547,2.89,2.89,0,0,0,2.107,1.243,4.637,4.637,0,0,0,.727.058c.064,0,.128.007.192.007a2.583,2.583,0,0,0,.262-.013,2.649,2.649,0,0,0,1.525-.682,2.646,2.646,0,0,0,1.979.688,4.633,4.633,0,0,0,.727-.058,2.887,2.887,0,0,0,2.107-1.243.544.544,0,0,0,0-.547m-.124.474a2.731,2.731,0,0,1-1.984,1.168,4.457,4.457,0,0,1-.724.058h-.005a2.5,2.5,0,0,1-1.893-.67l-.026-.025a.074.074,0,0,0-.1,0l-.026.025a2.5,2.5,0,0,1-1.893.67h-.005a4.457,4.457,0,0,1-.724-.058,2.731,2.731,0,0,1-1.984-1.168.4.4,0,0,1,0-.4.405.405,0,0,1,.353-.2h.031a.416.416,0,0,1,.356.211,2.157,2.157,0,0,0,1.664.765c.1.008.2.012.3.012a2.438,2.438,0,0,0,.98-.179.908.908,0,0,0,.574-.809h.845a.909.909,0,0,0,.574.809,2.436,2.436,0,0,0,.979.179c.1,0,.2,0,.3-.012a2.156,2.156,0,0,0,1.664-.765.416.416,0,0,1,.356-.211h.031a.405.405,0,0,1,.353.2.4.4,0,0,1,0,.4" transform="translate(-33.109 -45.252)" fill="#102833"/>
        <path id="Tracé_8" data-name="Tracé 8" d="M51.066,51.744c0,.419-.512.381-1.144.381a1.307,1.307,0,0,1-1.144-1.144c0-.421.512-.381,1.144-.381a1.307,1.307,0,0,1,1.144,1.144" transform="translate(-32.99 -31.252)" fill="#f3f1e0"/>
        <path id="Tracé_9" data-name="Tracé 9" d="M71.012,50.981a1.307,1.307,0,0,1-1.144,1.144c-.632,0-1.144.038-1.144-.381A1.307,1.307,0,0,1,69.868,50.6c.632,0,1.144-.04,1.144.382" transform="translate(-45.309 -31.251)" fill="#f3f1e0"/>
        <path id="Tracé_10" data-name="Tracé 10" d="M46.922,40.789l-2.288,1.144q-.05-.14-.1-.281a13.355,13.355,0,0,1-.614-2.857.3.3,0,0,1,.48-.263q1.067.848,2.05,1.8.237.228.469.462" transform="translate(-29.99 -23.759)" fill="#f3f1e0"/>
        <path id="Tracé_11" data-name="Tracé 11" d="M75.232,38.533a.3.3,0,0,1,.48.264,13.353,13.353,0,0,1-.7,3.109l-.01.028L72.713,40.79c.113-.114.226-.226.341-.337a28.509,28.509,0,0,1,2.178-1.919" transform="translate(-47.773 -23.759)" fill="#f3f1e0"/>
        <path id="Tracé_12" data-name="Tracé 12" d="M60.8,69.1a1.525,1.525,0,0,1-3.051,0c0-.632.683-.763,1.526-.763s1.525.131,1.525.763" transform="translate(-38.533 -42.206)" fill="#102833"/>
        <path id="Tracé_13" data-name="Tracé 13" d="M53.076,30.178a.538.538,0,0,1,.536.517c.055,1.431.025,4.765-1.27,6.6a9.266,9.266,0,0,1,1.77,4.892q.018.3.019.6,0,.156,0,.311a9.3,9.3,0,0,1-.442,2.55h-.01a9.322,9.322,0,0,1-17.835-.372H35.83a9.324,9.324,0,0,1-.333-2.245c0-.081,0-.162,0-.244q0-.314.021-.622a9.251,9.251,0,0,1,1.037-3.693q.2-.383.434-.744t.5-.7c-1.092-1.86-1.143-4.951-1.105-6.321a.538.538,0,0,1,.536-.523.532.532,0,0,1,.2.039,19.991,19.991,0,0,1,4.912,3.668,9.363,9.363,0,0,1,5.839.088c.91-.859,3.215-3.041,5.011-3.758a.536.536,0,0,1,.2-.039m0-1.18a1.711,1.711,0,0,0-.637.123,18.816,18.816,0,0,0-4.882,3.525,10.566,10.566,0,0,0-5.209-.072c-.464-.428-1.082-.982-1.749-1.518a12.6,12.6,0,0,0-3.046-1.932A1.717,1.717,0,0,0,35.2,30.671a15.945,15.945,0,0,0,.908,6.24c-.038.056-.076.113-.113.17-.175.269-.34.552-.49.84a10.381,10.381,0,0,0-1.168,4.16c-.016.229-.023.466-.023.7,0,.082,0,.17,0,.269v0a10.509,10.509,0,0,0,.375,2.529,1.207,1.207,0,0,0,.05.143,10.427,10.427,0,0,0,1.385,2.924,10.5,10.5,0,0,0,18.619-2.5,1.12,1.12,0,0,0,.06-.15,10.472,10.472,0,0,0,.5-2.871c0-.116.006-.234.006-.351,0-.222-.007-.448-.021-.673a10.46,10.46,0,0,0-1.553-4.859,14.619,14.619,0,0,0,1.054-6.6A1.718,1.718,0,0,0,53.076,29" transform="translate(-24.056 -17.91)" fill="#102833"/>
        <path id="Tracé_14" data-name="Tracé 14" d="M51.415,60a1.047,1.047,0,1,1-1.047-1.047A1.047,1.047,0,0,1,51.415,60" transform="translate(-33.325 -36.41)" fill="#102833"/>
        <path id="Tracé_15" data-name="Tracé 15" d="M71.092,60a1.047,1.047,0,1,1-1.047-1.047A1.047,1.047,0,0,1,71.092,60" transform="translate(-45.478 -36.41)" fill="#102833"/>
        <path id="Tracé_16" data-name="Tracé 16" d="M59.82,5.143a3.252,3.252,0,1,1-3.252-3.252A3.252,3.252,0,0,1,59.82,5.143" transform="translate(-35.793 -1.168)" fill="#4fb9d3"/>
        <path id="Tracé_17" data-name="Tracé 17" d="M55.4,7.949a3.974,3.974,0,1,1,3.974-3.974A3.979,3.979,0,0,1,55.4,7.949m0-6.5a2.529,2.529,0,1,0,2.529,2.529A2.532,2.532,0,0,0,55.4,1.445" transform="translate(-34.626)" fill="#102833"/>
        <path id="Tracé_18" data-name="Tracé 18" d="M103.524,74.713a3.252,3.252,0,1,1-3.252-3.252,3.252,3.252,0,0,1,3.252,3.252" transform="translate(-62.786 -44.137)" fill="#4fb9d3"/>
        <path id="Tracé_19" data-name="Tracé 19" d="M99.1,77.52a3.974,3.974,0,1,1,3.975-3.974A3.979,3.979,0,0,1,99.1,77.52m0-6.5a2.529,2.529,0,1,0,2.529,2.529A2.532,2.532,0,0,0,99.1,71.016" transform="translate(-61.618 -42.97)" fill="#102833"/>
        <path id="Tracé_20" data-name="Tracé 20" d="M15.881,74.713a3.252,3.252,0,1,1-3.252-3.252,3.252,3.252,0,0,1,3.252,3.252" transform="translate(-8.654 -44.137)" fill="#4fb9d3"/>
        <path id="Tracé_21" data-name="Tracé 21" d="M11.461,77.52a3.974,3.974,0,1,1,3.974-3.974,3.979,3.979,0,0,1-3.974,3.974m0-6.5a2.529,2.529,0,1,0,2.529,2.529,2.532,2.532,0,0,0-2.529-2.529" transform="translate(-7.487 -42.97)" fill="#102833"/>
        <path id="Tracé_22" data-name="Tracé 22" d="M85.373,33.442l-1.391-.392A17.806,17.806,0,0,0,69.965,10.695l.251-1.424A19.261,19.261,0,0,1,85.373,33.442" transform="translate(-46.076 -5.726)" fill="#102833"/>
        <path id="Tracé_23" data-name="Tracé 23" d="M12.213,33.413A19.25,19.25,0,0,1,27.378,9.272l.251,1.423A17.813,17.813,0,0,0,13.6,33.024Z" transform="translate(-9.967 -5.727)" fill="#102833"/>
        <path id="Tracé_24" data-name="Tracé 24" d="M36.591,94.847a19.217,19.217,0,0,1-15.62-8L22.144,86a17.791,17.791,0,0,0,28.867.038l1.17.848a19.214,19.214,0,0,1-15.59,7.962" transform="translate(-15.815 -53.116)" fill="#102833"/>
    </g>
</svg>
